/vscmnt/brussel_pixiu_data/_data_brussel/112/vsc11236/PredSimResults/SUBJ06mtu3D/worker9.mot
version=1
nRows=10
nColumns=50
inDegrees=yes
endheader
                time	         pelvis_tilt	         pelvis_list	     pelvis_rotation	           pelvis_tx	           pelvis_ty	           pelvis_tz	       hip_flexion_r	     hip_adduction_r	      hip_rotation_r	        knee_angle_r	       ankle_angle_r	         mtp_angle_r	       hip_flexion_l	     hip_adduction_l	      hip_rotation_l	        knee_angle_l	       ankle_angle_l	         mtp_angle_l	    lumbar_extension	      lumbar_bending	     lumbar_rotation	 ercspn_r/activation	 intobl_r/activation	 extobl_r/activation	    abd_r/activation	    add_r/activation	hamstrings_r/activation	bifemsh_r/activation	glut_max_r/activation	iliopsoas_r/activation	rect_fem_r/activation	  vasti_r/activation	gastroc_r/activation	 soleus_r/activation	tib_ant_r/activation	 ercspn_l/activation	 intobl_l/activation	 extobl_l/activation	    abd_l/activation	    add_l/activation	hamstrings_l/activation	bifemsh_l/activation	glut_max_l/activation	iliopsoas_l/activation	rect_fem_l/activation	  vasti_l/activation	gastroc_l/activation	 soleus_l/activation	tib_ant_l/activation	
          1.86358529	         -4.85729484	         -0.27752493	         -2.12141213	          2.08721552	          0.92980275	          0.01023915	        -11.74411276	         -0.85414585	        -10.27763445	        -11.14386315	          7.63885117	         34.15277575	         32.67430623	         -3.00198237	         -4.18416687	        -11.01143679	         -0.99967016	          0.22186595	         -7.62249761	          1.17519591	          8.59391346	          0.09764069	          0.00999999	          0.00999999	          0.08706262	          0.01000001	          0.01145704	          0.16978533	          0.02316648	          0.64084158	          0.03066668	          0.00999999	          0.23913507	          0.38136097	          0.02019937	          0.22230076	          0.15012558	          0.00999999	          0.00999999	          0.31972530	          0.11658299	          0.17973999	          0.03544662	          0.11547782	          0.01457004	          0.00999999	          0.01207065	          0.00999999	          0.49985562	
          1.87600919	         -4.98297024	         -0.38982433	         -2.13269062	          2.10410201	          0.92802340	          0.00858614	        -12.09178455	         -0.96861325	        -10.69959330	        -12.08410086	          6.51464540	         36.04093358	         32.86439319	         -2.87195270	         -4.36288578	        -12.66583537	         -1.25706884	          0.23048960	         -7.26812106	          0.92331123	          9.14568435	          0.14969421	          0.00999999	          0.00999999	          0.07212753	          0.01000001	          0.01000002	          0.14065964	          0.02122863	          0.63254303	          0.02540599	          0.01323473	          0.20420881	          0.35915399	          0.01673429	          0.21238478	          0.12437240	          0.00999999	          0.00999999	          0.45740466	          0.11423327	          0.14890663	          0.12167052	          0.09566827	          0.01207064	          0.00999999	          0.01000001	          0.01654333	          0.50807375	
          1.88843309	         -5.07729207	         -0.44714384	         -2.14870115	          2.12152310	          0.92643667	          0.00691175	        -12.30196681	         -1.19336024	        -11.08648941	        -13.37392696	          5.27550735	         37.95940790	         32.78546429	         -2.79482043	         -4.17342107	        -14.28949564	         -1.47923445	          0.19955316	         -6.88178581	          0.59750260	          9.65277018	          0.13913122	          0.00999999	          0.00999999	          0.05975447	          0.01000004	          0.01457007	          0.11653030	          0.01758698	          0.61829963	          0.02104774	          0.01096439	          0.16917797	          0.33057932	          0.01386362	          0.17595140	          0.10303704	          0.00999999	          0.01000411	          0.37893953	          0.11681442	          0.12336256	          0.14797380	          0.07925693	          0.00999999	          0.00999999	          0.01282726	          0.01370542	          0.56166334	
          1.90085699	         -5.14424624	         -0.44328369	         -2.14562140	          2.13921086	          0.92509485	          0.00510621	        -12.28397102	         -1.54976260	        -11.46241106	        -15.14314900	          3.91701933	         39.88393492	         32.55215380	         -2.69131295	         -4.13657089	        -15.71692060	         -1.77017853	          0.18900783	         -6.49479251	          0.20650847	         10.08986745	          0.14357164	          0.00999999	          0.00999999	          0.04950393	          0.01000000	          0.01207069	          0.09654021	          0.01457003	          0.58896302	          0.01743712	          0.00999999	          0.14015647	          0.29590487	          0.01148539	          0.15734950	          0.08536163	          0.00999999	          0.03410374	          0.32101017	          0.11596650	          0.10220043	          0.15825407	          0.06566086	          0.00999999	          0.04071120	          0.01062682	          0.01135433	          0.63338606	
          1.91328089	         -5.18407319	         -0.39488875	         -2.11946294	          2.15688622	          0.92410989	          0.00317368	        -11.96294814	         -2.03239533	        -11.82913211	        -17.48217497	          2.38325324	         41.76758373	         32.27571200	         -2.56945695	         -4.26457270	        -17.10055365	         -2.02405320	          0.15110718	         -6.14358494	         -0.22743588	         10.45239706	          0.18524019	          0.00999999	          0.00999999	          0.04101182	          0.01000000	          0.01000024	          0.07997931	          0.01207063	          0.52454004	          0.01444588	          0.00999999	          0.11611344	          0.24514410	          0.00999999	          0.15898247	          0.07071833	          0.00999999	          0.08624582	          0.32673128	          0.11019345	          0.08466854	          0.19568871	          0.05439712	          0.00999999	          0.09488458	          0.00999999	          0.00999999	          0.68884307	
          1.92570480	         -5.19827502	         -0.28974491	         -2.07845854	          2.17433392	          0.92368765	          0.00114499	        -11.29613066	         -2.66256170	        -12.17551476	        -20.41104890	          0.60373121	         43.45250383	         31.97269603	         -2.39433364	         -4.43762550	        -18.55039550	         -1.67944673	          0.17003331	         -5.84701431	         -0.71477403	         10.74341060	          0.23804031	          0.00999999	          0.00999999	          0.03397648	          0.01000003	          0.05548826	          0.07682065	          0.00999999	          0.43455823	          0.01196778	          0.00999999	          0.09619485	          0.20309104	          0.00999999	          0.14643657	          0.05858701	          0.00999999	          0.15180401	          0.27629950	          0.10673712	          0.07014414	          0.17623357	          0.04506561	          0.00999999	          0.19955494	          0.00999999	          0.00999999	          0.59968243	
          1.93812870	         -5.19262554	         -0.12935302	         -2.03202923	          2.19135818	          0.92410704	         -0.00093553	        -10.26576040	         -3.43967473	        -12.51069881	        -23.89010736	         -1.42815402	         44.53481326	         31.54088886	         -2.13200727	         -4.52514264	        -19.89760467	         -0.51771116	          0.42085831	         -5.61616367	         -1.24873418	         10.97174242	          0.27478906	          0.00999999	          0.00999999	          0.02814801	          0.04676873	          0.08987676	          0.08547731	          0.00999999	          0.36001228	          0.00999999	          0.00999999	          0.07969318	          0.16825195	          0.00999999	          0.12673204	          0.04853675	          0.00999999	          0.19632920	          0.23627755	          0.09615867	          0.05811132	          0.14600172	          0.03733486	          0.00999999	          0.26966849	          0.01000000	          0.00999999	          0.49681038	
          1.95055260	         -5.17309505	          0.04888119	         -1.97573042	          2.20782746	          0.92555219	         -0.00302241	         -8.87530825	         -4.32603044	        -12.85360877	        -27.88335287	         -3.57632405	         44.40053685	         30.87368605	         -1.81714699	         -4.56206712	        -20.82698882	          0.85575687	          0.87290450	         -5.45775169	         -1.78393407	         11.13654297	          0.27879966	          0.00999999	          0.00999999	          0.02331938	          0.06860897	          0.07445913	          0.08002659	          0.00999999	          0.29825425	          0.00999999	          0.00999999	          0.06602227	          0.13938930	          0.00999999	          0.12299160	          0.04021055	          0.00999999	          0.21327852	          0.20483167	          0.09319655	          0.04814266	          0.12095597	          0.03093028	          0.00999999	          0.28261555	          0.00999999	          0.00999999	          0.41158543	
          1.96297650	         -5.14302264	          0.20594413	         -1.90690041	          2.22372770	          0.92795896	         -0.00507191	         -7.17494722	         -5.27561731	        -13.20054208	        -32.21627143	         -5.99480602	         43.11410030	         29.95628390	         -1.49768420	         -4.58184964	        -21.22738317	          2.00538305	          1.39791730	         -5.36852561	         -2.27727478	         11.23498451	          0.27616623	          0.00999999	          0.00999999	          0.01931908	          0.08680566	          0.06168619	          0.09848979	          0.00999999	          0.24709046	          0.00999999	          0.00999999	          0.05469653	          0.11547787	          0.00999999	          0.11523888	          0.03331266	          0.00999999	          0.21340996	          0.17384382	          0.09019407	          0.03988407	          0.10020668	          0.02562437	          0.00999999	          0.27639272	          0.00999999	          0.00999999	          0.34158409	
          1.97540040	         -5.10320912	          0.31557567	         -1.82736922	          2.23909329	          0.93112062	         -0.00706061	         -5.23813735	         -6.25425878	        -13.54496414	        -36.69307541	         -8.70192464	         40.71019140	         28.83495242	         -1.20809324	         -4.58328317	        -21.17285402	          2.87423227	          1.91330194	         -5.34290835	         -2.69886771	         11.26839888	          0.27780178	          0.00999999	          0.00999999	          0.01600500	          0.07191467	          0.05439750	          0.11598593	          0.00999999	          0.20470352	          0.00999999	          0.00999999	          0.04531366	          0.09566831	          0.02662540	          0.09715662	          0.02759807	          0.00999999	          0.20389817	          0.15492670	          0.09099887	          0.03304219	          0.08301680	          0.02122866	          0.00999999	          0.24495562	          0.00999999	          0.00999999	          0.31122636	
